<mxfile host="app.diagrams.net" modified="2024-04-14T07:46:37.617Z" agent="Mozilla/5.0 (Windows NT 10.0; Win64; x64; rv:124.0) Gecko/20100101 Firefox/124.0" version="24.2.1" etag="aRK1Y2Y8zGOUqre_aoga" type="github">
  <diagram name="Page-1" id="ORcW78pB8pA4RtSE9EpY">
    <mxGraphModel>
      <root>
        <mxCell id="0" />
        <mxCell id="1" parent="0" />
      </root>
    </mxGraphModel>
  </diagram>
</mxfile>
